<?xml version="1.0" encoding="utf-8"?>
<svg xmlns="http://www.w3.org/2000/svg" viewBox="622.125 583.6211 1620.9336 1793.5039" width="1620.93px" height="1793.5px">
  <path fill-rule="nonzero" fill-opacity="1" d="M 1972.941406 1851.351562 C 1904.5 1851.351562 1843.269531 1878.359375 1796.441406 1920.691406 L 1154.320312 1547 C 1158.820312 1526.300781 1162.429688 1505.589844 1162.429688 1483.988281 C 1162.429688 1462.378906 1158.820312 1441.671875 1154.320312 1420.96875 L 1789.199219 1050.910156 C 1837.820312 1095.921875 1901.769531 1123.839844 1972.921875 1123.839844 C 2122.398438 1123.839844 2243.058594 1003.179688 2243.058594 853.738281 C 2243.058594 704.300781 2122.398438 583.621094 1972.921875 583.621094 C 1823.429688 583.621094 1702.761719 704.28125 1702.761719 853.71875 C 1702.761719 875.320312 1706.351562 896.039062 1710.878906 916.738281 L 1075.988281 1286.800781 C 1027.371094 1241.78125 963.425781 1213.871094 892.273438 1213.871094 C 742.792969 1213.871094 622.125 1334.519531 622.125 1483.980469 C 622.125 1633.429688 742.8125 1754.078125 892.273438 1754.078125 C 963.425781 1754.078125 1027.359375 1726.160156 1075.898438 1681.148438 L 1717.078125 2055.691406 C 1712.578125 2074.601562 1709.878906 2094.410156 1709.878906 2114.207031 C 1709.878906 2259.183594 1827.839844 2377.125 1972.839844 2377.125 C 2117.828125 2377.125 2235.789062 2259.183594 2235.789062 2114.207031 C 2235.789062 1969.25 2117.820312 1851.308594 1972.839844 1851.308594 Z M 1972.941406 1851.351562 " transform="matrix(1, 0, 0, 1, 0, 5.684341886080802e-14)" style="fill: rgb(81, 81, 81);"/>
</svg>